<svg width="20" height="21" viewBox="0 0 20 21" fill="none" xmlns="http://www.w3.org/2000/svg">
<circle cx="10" cy="10.3059" r="10" fill="#FFF5BA"/>
<g clip-path="url(#clip0_124_57454)">
<path d="M10.2811 10.4934V7.47469C10.2811 7.24969 10.0936 7.06219 9.86855 7.06219C9.64355 7.06219 9.45605 7.24969 9.45605 7.47469V10.6622C9.45605 10.7747 9.49355 10.8872 9.56855 10.9622L11.6498 13.0809C11.7248 13.1559 11.8373 13.2122 11.9498 13.2122C12.0623 13.2122 12.1561 13.1747 12.2498 13.0997C12.4186 12.9309 12.4186 12.6684 12.2498 12.4997L10.2811 10.4934Z" fill="#FBBF24"/>
<path d="M9.9999 4.58716C6.86865 4.58716 4.3374 7.15591 4.3374 10.3059C4.3374 13.4559 6.8874 16.0247 9.9999 16.0247C13.1124 16.0247 15.6624 13.4559 15.6624 10.3059C15.6624 7.15591 13.1312 4.58716 9.9999 4.58716ZM9.9999 15.1809C7.3374 15.1809 5.1624 12.9872 5.1624 10.3059C5.1624 7.62466 7.3374 5.43091 9.9999 5.43091C12.6624 5.43091 14.8374 7.62466 14.8374 10.3059C14.8374 12.9872 12.6624 15.1809 9.9999 15.1809Z" fill="#FBBF24"/>
</g>
<defs>
<clipPath id="clip0_124_57454">
<rect width="12" height="12" fill="white" transform="translate(4 4.30591)"/>
</clipPath>
</defs>
</svg>
