<svg xmlns="http://www.w3.org/2000/svg" viewBox="0 0 59 58" width="26" height="26">
            <title>logo</title>
            <defs>
              <linearGradient id="g1" x2="1" gradientUnits="userSpaceOnUse" gradientTransform="matrix(59.315,-0.395,.385,57.69,0,37.566)">
                <stop offset="0" stop-color="#289a68"></stop>
                <stop offset="1" stop-color="#2bda8d"></stop>
              </linearGradient>
            </defs>
            <style>
              .s0 {
                fill: url(#g1);
              }
              .s1 {
                fill: #ffffff;
              }
            </style>
            <path class="s0" d="m0 7.9c0-4.4 3.5-7.9 7.9-7.9h51.4v49.9c0 4.3-3.5 7.9-7.9 7.9h-51.4z"></path>
            <path class="s1" d="m12.4 28.2c2.6-2.6 6.9-2.6 9.5 0l9.3 9.2c0.4 0.5 0.4 1.3 0 1.8l-3.6 3.5c-0.5 0.5-1.3 0.5-1.7 0l-13.5-13.4c-0.3-0.3-0.3-0.8 0-1.1z"></path>
            <path class="s1" d="m22.2 39.2c-0.5-0.5-0.5-1.3 0-1.7l18.5-18.5c2.6-2.6 6.9-2.6 9.5 0 0.3 0.3 0.3 0.8 0 1.1l-22.7 22.7c-0.5 0.4-1.3 0.4-1.8 0z"></path>
          </svg>