<svg width="20" height="21" viewBox="0 0 20 21" fill="none" xmlns="http://www.w3.org/2000/svg">
<circle cx="10" cy="10.3059" r="10" fill="#E2F5EC"/>
<g clip-path="url(#clip0_124_57438)">
<path d="M9.9999 4.64343C6.86865 4.64343 4.3374 7.17468 4.3374 10.3059C4.3374 13.4372 6.86865 15.9872 9.9999 15.9872C13.1312 15.9872 15.6812 13.4372 15.6812 10.3059C15.6812 7.17468 13.1312 4.64343 9.9999 4.64343ZM9.9999 15.1434C7.3374 15.1434 5.18115 12.9684 5.18115 10.3059C5.18115 7.64343 7.3374 5.48718 9.9999 5.48718C12.6624 5.48718 14.8374 7.66218 14.8374 10.3247C14.8374 12.9684 12.6624 15.1434 9.9999 15.1434Z" fill="#13C296"/>
<path d="M11.6123 8.56216L9.38106 10.7372L8.36856 9.74341C8.19981 9.57466 7.93731 9.59341 7.76856 9.74341C7.59981 9.91216 7.61856 10.1747 7.76856 10.3434L8.96856 11.5059C9.08106 11.6184 9.23106 11.6747 9.38106 11.6747C9.53106 11.6747 9.68106 11.6184 9.79356 11.5059L12.2123 9.18091C12.3811 9.01216 12.3811 8.74966 12.2123 8.58091C12.0436 8.41216 11.7811 8.41216 11.6123 8.56216Z" fill="#13C296"/>
</g>
<defs>
<clipPath id="clip0_124_57438">
<rect width="12" height="12" fill="white" transform="translate(4 4.30591)"/>
</clipPath>
</defs>
</svg>
