<svg width="94" height="63" viewBox="0 0 94 63" fill="none" style="margin-bottom: 2px" xmlns="http://www.w3.org/2000/svg">
            <path d="M46.7075 38.0143C46.7075 39.6427 52.9943 40.9625 60.7494 40.9625C68.5045 40.9625 74.7913 39.6427 74.7913 38.0143C74.7913 36.386 68.5045 35.0654 60.7494 35.0654C52.9943 35.0654 46.7075 36.3852 46.7075 38.0143Z" fill="#E8EAEC"></path>
            <path fill-rule="evenodd" clip-rule="evenodd" d="M83.3436 58.3527V43.6357H86.2362V48.6859C86.6103 48.2085 87.0932 47.827 87.6447 47.5731C88.2187 47.3171 88.8416 47.189 89.4703 47.1977C90.067 47.1886 90.6593 47.3014 91.2107 47.529C91.7022 47.7299 92.1341 48.0528 92.4654 48.4671C92.6875 48.742 92.8461 49.0623 92.9299 49.4053C93.0405 49.9646 93.0863 50.5347 93.0663 51.1044V58.3551H90.1737V52.6635C90.2608 51.8011 90.1341 50.9305 89.8047 50.1285C89.6408 49.9413 89.4338 49.7965 89.2016 49.7068C88.9693 49.617 88.7186 49.5848 88.4711 49.613C88.171 49.5973 87.8709 49.6438 87.5896 49.7496C87.3084 49.8554 87.0522 50.0182 86.8371 50.2277C86.6303 50.453 86.4706 50.7173 86.3673 51.005C86.264 51.2927 86.2191 51.598 86.2354 51.9032V58.3567L83.3436 58.3527ZM79.3833 54.2603H82.2553C82.1981 55.5047 81.6542 56.677 80.7404 57.5256C79.7933 58.346 78.5679 58.7745 77.3148 58.7234C76.6178 58.7592 75.9217 58.639 75.2774 58.3715C74.6331 58.1041 74.0569 57.6962 73.591 57.1777C72.6313 55.9661 72.1518 54.4444 72.244 52.9027C72.1531 51.3602 72.6447 49.8397 73.6217 48.6411C74.101 48.1211 74.6892 47.713 75.3446 47.4458C76 47.1786 76.7063 47.059 77.4133 47.0954C78.6439 47.0339 79.8531 47.4329 80.8043 48.2145C81.2398 48.6123 81.5908 49.0933 81.8362 49.6291C82.0817 50.1649 82.2167 50.7445 82.2333 51.3334H79.3407C79.2979 50.8344 79.0814 50.366 78.7287 50.0097C78.3738 49.6954 77.9102 49.5313 77.4362 49.5524C77.1143 49.5349 76.7937 49.6047 76.5084 49.7543C76.2231 49.904 75.9837 50.1279 75.8156 50.4024C75.4064 51.1871 75.2206 52.0688 75.2786 52.9515C75.2277 53.7924 75.4213 54.63 75.8361 55.3637C76.0041 55.633 76.2408 55.8529 76.5219 56.001C76.8031 56.1491 77.1186 56.2201 77.4362 56.2066C77.6751 56.2171 77.9137 56.1793 78.1376 56.0955C78.3615 56.0116 78.566 55.8834 78.739 55.7186C79.1048 55.313 79.3306 54.8011 79.3833 54.2579V54.2603ZM64.3856 51.7836H68.6732C68.6909 51.1725 68.4829 50.5762 68.0889 50.1081C67.8823 49.9076 67.6359 49.7527 67.3656 49.6533C67.0952 49.5539 66.807 49.5123 66.5195 49.5312C66.2429 49.517 65.9665 49.5614 65.7082 49.6613C65.45 49.7613 65.2159 49.9146 65.0212 50.1112C64.6268 50.5805 64.4029 51.169 64.3856 51.7812V51.7836ZM68.6322 55.0591H71.5453C71.2943 56.1399 70.6633 57.0951 69.767 57.7514C68.8123 58.4192 67.6667 58.7605 66.5014 58.7242C65.798 58.7561 65.0962 58.6305 64.4478 58.3565C63.7993 58.0825 63.2206 57.6671 62.7539 57.1407C61.778 55.9276 61.285 54.3979 61.3692 52.8445C61.2837 51.3211 61.7688 49.8203 62.7303 48.634C63.1989 48.1185 63.7762 47.7131 64.4206 47.447C65.0651 47.181 65.7607 47.0609 66.4572 47.0954C67.174 47.0516 67.8917 47.1645 68.5602 47.4262C69.2287 47.6878 69.8319 48.092 70.3277 48.6104C71.3047 49.8297 71.7898 51.3693 71.6881 52.9271C71.6881 53.1349 71.6881 53.2891 71.6881 53.3946C71.6881 53.5001 71.6747 53.5961 71.6644 53.6881H64.3887C64.3756 54.3835 64.5957 55.0632 65.0141 55.6195C65.22 55.8416 65.4729 56.0151 65.7545 56.1273C66.0361 56.2394 66.3392 56.2875 66.6418 56.2679C67.0714 56.2855 67.4975 56.1839 67.8728 55.9744C68.2131 55.7522 68.4779 55.4322 68.6322 55.0567V55.0591ZM61.0616 58.4369C60.7951 58.444 60.4733 58.4542 60.1042 58.4708C59.7352 58.4873 59.4954 58.4983 59.3945 58.4983C58.578 58.5897 57.7574 58.3665 57.1004 57.8742C56.6016 57.1538 56.383 56.2767 56.4853 55.407V49.5312H55.0461V47.485H56.4853V44.5164H59.3772V47.485H61.0592V49.5312H59.3772V55.547C59.3626 55.6493 59.3724 55.7535 59.4057 55.8512C59.439 55.949 59.4948 56.0375 59.5688 56.1097C59.8114 56.2255 60.0812 56.2726 60.3487 56.2459H61.0585L61.0616 58.4369ZM47.8083 51.7812H52.096C52.1135 51.1701 51.9056 50.5738 51.5116 50.1057C51.3051 49.9053 51.0586 49.7504 50.7883 49.651C50.518 49.5516 50.2297 49.51 49.9423 49.5288C49.6657 49.5147 49.3892 49.5591 49.131 49.6591C48.8728 49.759 48.6387 49.9123 48.4439 50.1088C48.049 50.5787 47.825 51.1681 47.8083 51.7812ZM52.055 55.0567H54.9681C54.7166 56.1374 54.0858 57.0925 53.1898 57.7491C52.2353 58.4167 51.0899 58.758 49.9249 58.7218C49.2215 58.7538 48.5197 58.6282 47.8713 58.3542C47.2228 58.0802 46.6441 57.6647 46.1775 57.1384C45.2015 55.9253 44.7084 54.3955 44.7927 52.8421C44.7071 51.3187 45.1923 49.8179 46.1538 48.6316C46.6224 48.1161 47.1997 47.7107 47.8442 47.4446C48.4886 47.1786 49.1842 47.0585 49.8808 47.093C50.5975 47.0492 51.3152 47.162 51.9837 47.4237C52.6523 47.6854 53.2555 48.0896 53.7513 48.608C54.7282 49.8273 55.2134 51.3669 55.1116 52.9247C55.1116 53.1325 55.1116 53.2868 55.1116 53.3922C55.1116 53.4977 55.0974 53.5937 55.0879 53.6858H47.8083C47.7951 54.3811 48.0152 55.0609 48.4337 55.6171C48.6395 55.8393 48.8925 56.0128 49.1741 56.125C49.4557 56.2372 49.7588 56.2852 50.0614 56.2656C50.491 56.2832 50.9171 56.1816 51.2924 55.972C51.6331 55.7508 51.8987 55.4317 52.0542 55.0567H52.055ZM33.406 59.3971L36.5857 59.3868C36.6216 59.5552 36.6909 59.7147 36.7895 59.8559C36.8881 59.9971 37.014 60.1173 37.1598 60.2093C37.5166 60.4072 37.9216 60.5017 38.3293 60.4823C38.6685 60.5185 39.0115 60.4864 39.3381 60.388C39.6647 60.2896 39.9681 60.1268 40.2306 59.9094C40.6592 59.2882 40.8508 58.5345 40.7708 57.7845V56.8157C40.4949 57.312 40.0789 57.7165 39.5745 57.9789C38.9995 58.2464 38.3695 58.375 37.7355 58.3543C37.0936 58.3781 36.4548 58.2548 35.8681 57.994C35.2814 57.7331 34.7624 57.3416 34.3508 56.8495C33.4572 55.7107 33.0055 54.2883 33.0788 52.8437C32.9987 51.3441 33.4393 49.8628 34.3263 48.6497C34.7238 48.144 35.2355 47.7395 35.8196 47.469C36.4038 47.1986 37.0439 47.07 37.6874 47.0938C38.3383 47.0745 38.9837 47.2187 39.5642 47.5133C40.0989 47.814 40.5382 48.2585 40.8323 48.7961V47.4826H43.6051V57.635C43.641 58.5165 43.5326 59.398 43.2841 60.2447C43.0733 60.8425 42.6947 61.3673 42.1935 61.7565C41.6929 62.1267 41.1214 62.3903 40.5145 62.5309C39.7565 62.7178 38.9776 62.8072 38.1968 62.7969C36.9866 62.8633 35.7857 62.5519 34.7609 61.9061C34.3544 61.6224 34.0202 61.2477 33.7848 60.8121C33.5494 60.3764 33.4202 59.8918 33.406 59.3971ZM36.0321 52.7469C35.9787 53.5761 36.1944 54.4004 36.6472 55.0977C36.8627 55.3542 37.1319 55.5605 37.4358 55.7021C37.7398 55.8437 38.0711 55.917 38.4066 55.917C38.742 55.917 39.0734 55.8437 39.3773 55.7021C39.6813 55.5605 39.9505 55.3542 40.1659 55.0977C40.6148 54.385 40.8265 53.549 40.7708 52.7091C40.8219 51.8935 40.6021 51.0839 40.1454 50.4055C39.9368 50.1366 39.6662 49.9221 39.3565 49.7801C39.0469 49.6381 38.7075 49.573 38.3672 49.5902C38.0335 49.575 37.7014 49.6428 37.4006 49.7877C37.0998 49.9325 36.8398 50.1497 36.644 50.4197C36.1981 51.1119 35.9847 51.9278 36.0345 52.7492L36.0321 52.7469ZM29.135 53.0058C28.6104 53.2423 28.061 53.4196 27.497 53.5347C26.878 53.6677 26.5602 53.7393 26.5397 53.7464C26.1373 53.8321 25.7647 54.0221 25.4593 54.2973C25.2451 54.5497 25.1362 54.8745 25.1549 55.2047C25.1466 55.3821 25.1771 55.5593 25.2444 55.7237C25.3117 55.8882 25.4141 56.036 25.5444 56.157C25.8377 56.404 26.2139 56.5309 26.5972 56.5119C26.9361 56.531 27.2754 56.482 27.595 56.3678C27.9146 56.2536 28.2079 56.0764 28.4575 55.8469C28.689 55.6078 28.8685 55.3237 28.985 55.0122C29.1014 54.7008 29.1522 54.3687 29.1342 54.0368L29.135 53.0058ZM29.1862 57.0014C28.8304 57.5552 28.3305 58.0021 27.7399 58.2945C27.0926 58.6036 26.3817 58.7567 25.6643 58.7415C25.2167 58.7704 24.7679 58.7055 24.3469 58.551C23.9259 58.3964 23.5419 58.1557 23.2196 57.8443C22.6095 57.1359 22.3015 56.2172 22.3616 55.285C22.3322 54.8555 22.3934 54.4247 22.5412 54.0203C22.6889 53.616 22.9201 53.247 23.2196 52.9373C24.0333 52.2975 25.0182 51.9117 26.0507 51.8284C26.3512 51.7804 26.7478 51.7293 27.2336 51.6711C28.4712 51.5105 29.09 51.1532 29.09 50.5992C29.1071 50.42 29.0784 50.2394 29.0067 50.0743C28.935 49.9092 28.8226 49.7648 28.6799 49.6547C28.259 49.4289 27.7817 49.3295 27.3054 49.3683C26.828 49.337 26.3532 49.4601 25.9514 49.7193C25.7955 49.8345 25.6708 49.9864 25.5882 50.1616C25.5056 50.3367 25.4678 50.5294 25.4782 50.7227V50.8801H22.7496V50.6786C22.7267 50.1783 22.8218 49.6796 23.0273 49.2226C23.2327 48.7657 23.5428 48.3632 23.9325 48.0477C24.8772 47.3611 26.0315 47.0234 27.1981 47.0923C28.418 47.0181 29.6338 47.2928 30.7027 47.884C31.09 48.1226 31.4068 48.4597 31.6207 48.8608C31.8345 49.2618 31.9376 49.7124 31.9195 50.1663V56.3388C31.9033 56.6834 31.9509 57.0281 32.0599 57.3556C32.1507 57.5759 32.319 57.7555 32.5331 57.8608V58.3519H29.4969C29.3947 58.1554 29.3178 57.9468 29.2682 57.731C29.215 57.4906 29.1872 57.2453 29.1854 56.9991L29.1862 57.0014ZM5.76466 58.3527V47.481H8.52478V48.682C8.89438 48.2135 9.35937 47.8286 9.88906 47.5527C10.406 47.2965 10.9767 47.1667 11.5538 47.1741C12.1645 47.1575 12.7701 47.2899 13.3179 47.5597C13.8395 47.8472 14.2777 48.2645 14.5899 48.7709C14.9307 48.2676 15.3925 47.8577 15.9331 47.5787C16.4738 47.2997 17.0759 47.1606 17.6844 47.1741C18.1641 47.1364 18.6462 47.2034 19.0974 47.3702C19.5486 47.5371 19.958 47.7999 20.2972 48.1404C20.6365 48.4809 20.8975 48.891 21.0621 49.3422C21.2267 49.7934 21.291 50.2749 21.2505 50.7534V58.3519H18.3784V51.3476C18.392 51.1253 18.3612 50.9025 18.2878 50.6921C18.2144 50.4818 18.0999 50.2881 17.951 50.1222C17.7943 49.9727 17.6083 49.857 17.4048 49.7824C17.2013 49.7078 16.9845 49.6758 16.7681 49.6886C16.5157 49.6764 16.2638 49.72 16.0303 49.8162C15.7968 49.9124 15.5875 50.0588 15.4172 50.245C15.0631 50.668 14.8835 51.2097 14.9148 51.76V58.3488H12.0609V51.3673C12.0886 50.9159 11.939 50.4715 11.6437 50.1285C11.4915 49.9771 11.3088 49.8596 11.1078 49.7838C10.9067 49.708 10.6919 49.6755 10.4774 49.6886C10.2254 49.6771 9.97402 49.7213 9.74117 49.818C9.50833 49.9147 9.29977 50.0616 9.13042 50.2481C8.77964 50.6794 8.60276 51.2259 8.63439 51.7805V58.3488L5.76466 58.3527ZM0.627686 58.3527V43.6357H3.66382V58.3527H0.627686Z" fill="#667085"></path>
            <path d="M47.9519 25.2757C50.7908 24.8224 56.3379 26.7442 60.344 29.5688C64.3501 32.3934 65.298 35.0503 62.4598 35.5036C62.3068 35.5278 62.1462 35.5453 61.978 35.5563C60.9912 35.6206 60.0007 35.6032 59.0168 35.5044C58.852 35.4871 58.6327 35.4627 58.4695 35.4398C58.2329 35.4068 57.9238 35.3611 57.6927 35.3171C57.161 35.2219 56.6346 35.0995 56.1155 34.9503C55.968 34.9102 55.7732 34.8512 55.6289 34.8032C55.3726 34.7182 55.0327 34.6017 54.7804 34.5065C54.599 34.438 54.1195 34.2515 53.5864 33.9965C53.4287 33.9178 52.9453 33.6895 52.3988 33.3669C51.9659 33.1135 51.6055 32.8821 51.1938 32.5933C51.0219 32.4721 50.5685 32.1462 50.0764 31.7323C49.8666 31.556 49.5945 31.3112 49.3919 31.1263C49.2704 31.0153 49.1127 30.8619 48.9975 30.7438C48.8824 30.6258 48.7207 30.4644 48.6032 30.3408C48.4455 30.1716 48.2366 29.9473 48.0875 29.7679C47.9519 29.6105 47.7721 29.3941 47.6396 29.2272C47.4314 28.9589 47.1601 28.5976 46.9598 28.3175C45.8644 26.7553 46.1294 25.563 47.9464 25.2718" fill="#7D8B00"></path>
            <path d="M59.9486 36.2491C56.0415 35.3233 52.3454 33.6676 49.0556 31.3696C48.0194 30.6569 47.0578 29.8419 46.1851 28.937C47.7908 31.0997 49.8594 32.8779 52.2405 34.1424C54.6215 35.4068 57.2549 36.1257 59.9493 36.2467" fill="#AFBD00"></path>
            <path d="M47.9535 25.276C50.7925 24.8227 56.3395 26.7445 60.3457 29.5691C64.3518 32.3937 65.2989 35.0506 62.4615 35.5039C59.6241 35.9572 54.0755 34.0353 50.0693 31.2108C46.0632 28.3862 45.1161 25.7285 47.9535 25.276ZM46.523 24.2678C44.9631 24.5173 44.3591 25.3224 44.6256 26.447C45.0768 27.3186 45.5983 28.1522 46.1847 28.9395C47.0576 29.8447 48.0195 30.6599 49.056 31.3729C52.3459 33.6709 56.0419 35.3266 59.949 36.2523C60.2242 36.2649 60.501 36.272 60.7794 36.272C62.4171 36.273 64.0474 36.0533 65.6261 35.6188C66.4676 34.3289 64.9266 31.9254 61.3598 29.4101C56.5627 26.026 49.9203 23.7248 46.5222 24.2678H46.523Z" fill="#004314"></path>
            <path d="M46.1451 16.4134C50.7434 15.6791 59.7343 18.7933 66.2269 23.3697C71.7566 27.2686 73.6902 30.9698 71.2992 32.4352C70.8726 32.6965 70.4278 32.9492 69.9767 33.1853C69.3545 33.5111 68.8458 33.7361 68.6282 33.8353C68.4381 33.9203 67.924 34.1438 67.2552 34.3909C66.9713 34.4956 66.7032 34.5877 66.7032 34.5877C66.3318 34.712 66.2923 34.7254 65.8704 34.8553C68.6842 34.0037 67.3365 30.8416 62.5851 27.4913C57.5207 23.9214 50.5068 21.4919 46.9195 22.0609C45.0615 22.3576 44.4874 23.3989 45.0686 24.8351C44.9969 24.6588 44.78 24.1205 44.5545 23.4524C44.3242 22.7724 44.1736 22.227 44.1191 22.0247C44.0568 21.7934 43.9117 21.2519 43.7722 20.5562C43.754 20.4665 43.7304 20.3468 43.7138 20.2563C43.6815 20.0769 43.6389 19.8369 43.6097 19.6559C43.5837 19.5032 43.5703 19.4064 43.5198 19.0467C43.3384 17.6883 44.1838 16.7235 46.1474 16.4102" fill="#7D8B00"></path>
            <path d="M46.1434 16.4133C50.7417 15.6791 59.7326 18.7932 66.2252 23.3697C72.7178 27.9461 74.2524 32.2518 69.6533 32.9861C65.0541 33.7204 56.064 30.6062 49.5715 26.0297C43.0789 21.4533 41.5442 17.1484 46.1434 16.4133ZM45.2097 15.7546C44.7051 15.7819 44.2128 15.9196 43.7675 16.158C43.3223 16.3964 42.935 16.7297 42.6333 17.1342C42.6152 17.4648 42.6057 17.7977 42.6057 18.1322C42.6057 18.6395 42.6267 19.1416 42.6688 19.6385C43.4337 21.4777 45.5598 23.7726 48.9114 26.1352C55.6934 30.9147 64.9989 34.217 70.0894 33.7078C71.3054 32.982 72.4325 32.1173 73.448 31.1311C73.4157 29.1447 71.1343 26.258 66.8869 23.2611C59.8785 18.3242 50.174 14.9629 45.2105 15.7554L45.2097 15.7546Z" fill="#004314"></path>
            <path d="M70.0907 33.7085C64.9979 34.2177 55.6932 30.9154 48.9128 26.136C45.5628 23.775 43.4359 21.48 42.6702 19.6416C42.8183 21.4459 43.2378 23.2176 43.9146 24.8972C44.6819 26.3036 46.3253 27.9791 48.7645 29.6979C53.6586 33.1482 60.1661 35.6532 64.4727 35.8925C66.4545 35.4833 68.3533 34.7447 70.09 33.7077" fill="#AFBD00"></path>
            <path d="M47.5131 9.89614C52.5822 9.08631 62.4965 12.52 69.6508 17.5655C74.824 21.2117 77.1425 24.7028 76.1173 26.6633C75.9082 27.0044 75.6309 27.299 75.3027 27.5285C74.9745 27.758 74.6024 27.9176 74.2097 27.9972C73.6703 26.088 71.478 23.5845 67.8109 21C60.8365 16.0836 51.1785 12.7364 46.2387 13.5234C44.6126 13.7832 43.7002 14.4584 43.4573 15.4233C43.5464 15.0668 43.7404 14.3364 44.0385 13.4503C44.3492 12.5263 44.6284 11.8621 44.7624 11.5425C45.1149 10.713 46.4611 10.0882 47.5162 9.88984" fill="#851E55"></path>
            <path d="M47.5124 9.8956C52.5815 9.08577 62.4959 12.5195 69.6501 17.565C76.8043 22.6104 78.499 27.3561 73.4299 28.1667C68.3607 28.9773 58.4464 25.5428 51.2922 20.4973C44.1379 15.4518 42.4432 10.7054 47.5124 9.8956ZM46.8381 9.42339C45.8147 9.4961 44.8609 9.96761 44.1829 10.7361C44.0457 11.0425 43.9169 11.3531 43.7965 11.6679C43.4503 13.8007 45.9147 17.1219 50.8151 20.576C58.3446 25.8836 68.7716 29.4959 74.1041 28.6444C74.7852 28.5562 75.4417 28.3333 76.0354 27.9888C76.4597 27.3361 76.8414 26.6569 77.1781 25.9552C77.1505 23.8208 74.6995 20.7145 70.128 17.4918C62.5984 12.1811 52.1707 8.5687 46.8381 9.42024V9.42339Z" fill="#9D1D62"></path>
            <path d="M76.0348 27.9886C75.4413 28.3318 74.7853 28.5538 74.1051 28.6419C68.7718 29.4934 58.3448 25.8818 50.816 20.5735C45.9204 17.1225 43.4552 13.8053 43.7974 11.6709C43.2 13.2356 42.8236 14.8758 42.6792 16.544C43.2431 18.5588 45.5592 21.2039 49.4328 23.9348C56.7889 29.1204 66.9753 32.6493 72.1856 31.8166C72.427 31.7783 72.6535 31.7314 72.8654 31.6758C74.0829 30.5932 75.1496 29.3529 76.0372 27.9879" fill="#591139"></path>
            <path d="M45.7008 9.57134C45.7299 9.51546 45.7694 9.44226 45.7993 9.38717C45.9192 9.1676 45.9792 9.05663 46.103 8.83627C46.3395 8.42073 46.5532 8.07445 46.6337 7.94538C47.1613 7.09935 47.5627 6.56026 47.778 6.27064C48.4081 5.57267 49.2838 5.1444 50.2226 5.07517C55.1656 4.28817 64.8307 7.63372 71.8091 12.5517C76.4808 15.8453 78.7646 19.0052 78.2812 20.9727C78.2559 21.0789 78.1605 21.4622 78.0186 21.9462C77.8766 22.4302 77.7512 22.8009 77.7094 22.9252C77.394 23.8468 77.1038 24.5378 76.9626 24.8699C77.8151 22.8859 75.4856 19.4719 70.4322 15.9091C63.274 10.8636 53.362 7.42911 48.2921 8.23973C46.8821 8.46481 45.9957 8.99446 45.6038 9.74998C45.6337 9.69489 45.6716 9.62013 45.7008 9.56504" fill="#851E55"></path>
            <path d="M78.4229 22.4855C77.7737 22.9827 77 23.2923 76.1864 23.3803C70.9729 24.213 60.7802 20.6817 53.4202 15.4937C48.6822 12.1537 46.273 8.94114 46.5491 6.854C45.8048 7.78719 45.1545 8.79128 44.6075 9.85171C44.102 11.9766 46.5664 15.3804 51.5946 18.9251C59.1242 24.2334 69.5526 27.8458 74.8868 26.9942C75.676 26.9037 76.4297 26.6162 77.0783 26.1585C77.6587 24.9867 78.1095 23.7554 78.4229 22.4863" fill="#591139"></path>
            <path d="M50.2231 5.07802C55.166 4.29102 64.8312 7.63657 71.8095 12.5546C78.7879 17.4726 80.4384 22.1064 75.4978 22.8935C70.5572 23.6805 60.8905 20.3349 53.9114 15.4169C46.9322 10.4989 45.2825 5.86896 50.2262 5.0796M49.5354 4.59245C49.1403 4.65262 48.7518 4.75039 48.3754 4.88443C47.7201 5.49479 47.1107 6.1524 46.5521 6.85194C46.2761 8.93908 48.6814 12.1516 53.4224 15.4925C60.7825 20.6812 70.9752 24.2125 76.1887 23.379C77.0025 23.2909 77.7763 22.9808 78.4251 22.4826C78.6731 21.4772 78.8343 20.4525 78.907 19.4196C78.1475 17.4686 75.8945 15.0124 72.3016 12.4767C64.9392 7.28872 54.7465 3.75822 49.533 4.59088L49.5354 4.59245Z" fill="#9D1D62"></path>
            <path d="M78.0209 17.3917C77.9783 17.0328 77.9657 16.9242 77.9421 16.7692C77.9145 16.585 77.8766 16.3403 77.8459 16.1577C77.8309 16.0656 77.808 15.9436 77.7907 15.8515C77.6534 15.1165 77.5028 14.549 77.4531 14.3625C77.1942 13.3952 76.8643 12.4482 76.4658 11.5293C75.8972 10.2173 74.3784 8.59061 72.0039 6.91665C66.9702 3.36805 59.999 0.953516 56.4337 1.52252C54.8525 1.70589 53.5253 2.57395 52.1042 3.51993C56.6624 2.79195 65.5744 5.88096 72.0094 10.4157C75.7387 13.0443 77.8175 15.5831 78.0194 17.3948" fill="#00327A"></path>
            <path d="M78.247 13.1232C78.1682 12.8706 78.0617 12.5471 77.9316 12.1938C78.5041 13.7379 77.8425 14.8578 75.8142 15.1844C71.7986 15.8258 63.9473 13.1059 58.278 9.10949C53.8618 5.99453 52.0709 3.02359 53.3981 1.56055C51.5578 2.37819 49.8664 3.49519 48.3928 4.86596C48.004 6.83348 50.2768 9.92876 54.8523 13.1547C61.792 18.0499 71.413 21.3805 76.3299 20.595C77.6784 20.3794 78.5333 19.8773 78.9213 19.1603C78.9402 18.8203 78.9505 18.4788 78.9505 18.1372C78.9518 16.4426 78.7153 14.7562 78.2478 13.1271" fill="#1B71DF"></path>
            <path d="M56.4345 1.5201C59.9998 0.950313 66.971 3.36562 72.0047 6.91423C77.0384 10.4628 78.2284 13.8013 74.6631 14.3703C71.0978 14.9393 64.1265 12.5248 59.0929 8.97619C54.0592 5.42758 52.8692 2.0899 56.4345 1.5201ZM53.3976 1.55787C52.0704 3.02091 53.8589 5.99186 58.2775 9.10683C63.9467 13.1032 71.7981 15.8231 75.8137 15.1817C79.8292 14.5403 78.4886 10.78 72.817 6.7836C67.4694 3.01384 60.1804 0.380517 56.0008 0.632358C55.1121 0.872971 54.2431 1.18107 53.4015 1.55394L53.3976 1.55787Z" fill="#008FD2"></path>
            <path d="M76.8064 9.58377C77.3584 10.9358 76.8143 11.9204 75.0628 12.2006C71.6812 12.7404 65.0704 10.4503 60.2969 7.08503C56.3626 4.31083 54.9045 1.67279 56.4075 0.529274C60.3325 -0.437749 64.4683 -0.0726339 68.1622 1.56697C71.856 3.20658 74.8975 6.02728 76.8064 9.58377Z" fill="#1B71DF"></path>
            <path d="M53.3972 1.55713C52.07 3.02017 53.8585 5.99111 58.2771 9.10607C60.7218 10.8044 63.3551 12.2149 66.1244 13.3095C63.6496 14.4484 60.9885 15.1302 58.27 15.3218C57.087 14.6434 55.9349 13.9178 54.8506 13.1536C50.2767 9.92692 48.0023 6.82926 48.3911 4.8649C49.8646 3.49413 51.5561 2.37712 53.3964 1.55948" fill="#1B71DF"></path>
            <path d="M5.09745 39.6773C4.53236 39.6773 4.00964 39.5855 3.52931 39.4019C3.05604 39.2111 2.64281 38.9462 2.28963 38.6072C1.94351 38.2681 1.67155 37.869 1.47377 37.4099C1.28305 36.9508 1.18769 36.4492 1.18769 35.9053C1.18769 35.3614 1.28305 34.8599 1.47377 34.4008C1.67155 33.9416 1.94704 33.5425 2.30022 33.2035C2.65341 32.8644 3.06664 32.603 3.5399 32.4194C4.02024 32.2287 4.54295 32.1333 5.10805 32.1333C5.67315 32.1333 6.1888 32.2216 6.655 32.3982C7.12827 32.5748 7.5309 32.8432 7.8629 33.2035L7.3755 33.7014C7.0647 33.3906 6.72211 33.1681 6.34773 33.0339C5.97335 32.8997 5.57072 32.8326 5.13983 32.8326C4.68069 32.8326 4.25687 32.9103 3.86837 33.0657C3.48693 33.214 3.1514 33.4295 2.86179 33.712C2.57924 33.9875 2.35673 34.3125 2.19427 34.6868C2.03887 35.0541 1.96116 35.4603 1.96116 35.9053C1.96116 36.3433 2.03887 36.7494 2.19427 37.1238C2.35673 37.4982 2.57924 37.8267 2.86179 38.1092C3.1514 38.3847 3.48693 38.6001 3.86837 38.7555C4.25687 38.9039 4.67716 38.978 5.12924 38.978C5.55306 38.978 5.95216 38.9145 6.32654 38.7873C6.70798 38.6602 7.05763 38.4447 7.3755 38.141L7.82051 38.7343C7.46733 39.0451 7.0541 39.2818 6.58083 39.4442C6.10756 39.5996 5.6131 39.6773 5.09745 39.6773ZM7.06823 38.639V35.9053H7.82051V38.7343L7.06823 38.639ZM10.0926 39.6138V34.0511H10.8131V35.5663L10.7389 35.3014C10.8943 34.8776 11.1557 34.5562 11.523 34.3372C11.8903 34.1111 12.3459 33.9981 12.8898 33.9981V34.7292C12.8616 34.7292 12.8333 34.7292 12.8051 34.7292C12.7768 34.7221 12.7486 34.7186 12.7203 34.7186C12.134 34.7186 11.6749 34.8987 11.3429 35.259C11.0109 35.6122 10.8449 36.1172 10.8449 36.7742V39.6138H10.0926ZM16.8565 39.6667C16.3832 39.6667 15.97 39.5785 15.6168 39.4019C15.2636 39.2253 14.9881 38.9604 14.7903 38.6072C14.5996 38.254 14.5042 37.8125 14.5042 37.2827V34.0511H15.2565V37.198C15.2565 37.7913 15.4013 38.2399 15.6909 38.5436C15.9876 38.8403 16.4009 38.9886 16.9306 38.9886C17.3191 38.9886 17.6547 38.9109 17.9372 38.7555C18.2268 38.5931 18.4458 38.36 18.5941 38.0562C18.7495 37.7525 18.8272 37.3887 18.8272 36.9649V34.0511H19.5795V39.6138H18.859V38.088L18.9756 38.3635C18.799 38.7732 18.5235 39.0946 18.1491 39.3277C17.7818 39.5537 17.3509 39.6667 16.8565 39.6667ZM24.7594 39.6667C24.2791 39.6667 23.8447 39.5573 23.4562 39.3383C23.0677 39.1122 22.7569 38.7908 22.5238 38.3741C22.2977 37.9503 22.1847 37.4346 22.1847 36.8271C22.1847 36.2197 22.2977 35.7075 22.5238 35.2908C22.7498 34.867 23.0571 34.5456 23.4456 34.3266C23.8341 34.1076 24.272 33.9981 24.7594 33.9981C25.2892 33.9981 25.7625 34.1182 26.1792 34.3584C26.6031 34.5915 26.9351 34.9235 27.1752 35.3544C27.4154 35.7782 27.5355 36.2691 27.5355 36.8271C27.5355 37.3922 27.4154 37.8867 27.1752 38.3105C26.9351 38.7343 26.6031 39.0663 26.1792 39.3065C25.7625 39.5467 25.2892 39.6667 24.7594 39.6667ZM21.888 41.6693V34.0511H22.6085V35.7252L22.5344 36.8377L22.6403 37.9609V41.6693H21.888ZM24.7065 38.9992C25.102 38.9992 25.4552 38.9109 25.766 38.7343C26.0768 38.5507 26.324 38.2964 26.5077 37.9715C26.6914 37.6395 26.7832 37.258 26.7832 36.8271C26.7832 36.3962 26.6914 36.0183 26.5077 35.6934C26.324 35.3685 26.0768 35.1142 25.766 34.9305C25.4552 34.7469 25.102 34.655 24.7065 34.655C24.3109 34.655 23.9542 34.7469 23.6363 34.9305C23.3255 35.1142 23.0783 35.3685 22.8946 35.6934C22.718 36.0183 22.6297 36.3962 22.6297 36.8271C22.6297 37.258 22.718 37.6395 22.8946 37.9715C23.0783 38.2964 23.3255 38.5507 23.6363 38.7343C23.9542 38.9109 24.3109 38.9992 24.7065 38.9992ZM31.5484 39.6667C31.0115 39.6667 30.5277 39.5467 30.0968 39.3065C29.673 39.0593 29.3374 38.7237 29.0902 38.2999C28.843 37.869 28.7194 37.3781 28.7194 36.8271C28.7194 36.2691 28.843 35.7782 29.0902 35.3544C29.3374 34.9305 29.673 34.5985 30.0968 34.3584C30.5206 34.1182 31.0045 33.9981 31.5484 33.9981C32.0993 33.9981 32.5867 34.1182 33.0106 34.3584C33.4414 34.5985 33.777 34.9305 34.0171 35.3544C34.2644 35.7782 34.388 36.2691 34.388 36.8271C34.388 37.3781 34.2644 37.869 34.0171 38.2999C33.777 38.7237 33.4414 39.0593 33.0106 39.3065C32.5797 39.5467 32.0923 39.6667 31.5484 39.6667ZM31.5484 38.9992C31.951 38.9992 32.3077 38.9109 32.6185 38.7343C32.9293 38.5507 33.173 38.2964 33.3496 37.9715C33.5333 37.6395 33.6251 37.258 33.6251 36.8271C33.6251 36.3892 33.5333 36.0077 33.3496 35.6828C33.173 35.3579 32.9293 35.1071 32.6185 34.9305C32.3077 34.7469 31.9545 34.655 31.559 34.655C31.1634 34.655 30.8102 34.7469 30.4994 34.9305C30.1886 35.1071 29.9414 35.3579 29.7577 35.6828C29.5741 36.0077 29.4822 36.3892 29.4822 36.8271C29.4822 37.258 29.5741 37.6395 29.7577 37.9715C29.9414 38.2964 30.1886 38.5507 30.4994 38.7343C30.8102 38.9109 31.1599 38.9992 31.5484 38.9992Z" fill="#667085"></path>
          </svg>